<svg width="50" height="51" viewBox="0 0 50 51" fill="none" xmlns="http://www.w3.org/2000/svg">
<path d="M31 0.968018H19C8.50659 0.968018 0 9.47461 0 19.968V31.968C0 42.4614 8.50659 50.968 19 50.968H31C41.4934 50.968 50 42.4614 50 31.968V19.968C50 9.47461 41.4934 0.968018 31 0.968018Z" fill="#02897A"/>
<path d="M29.116 27.5699L19.973 18.42C19.866 18.31 19.723 18.25 19.571 18.25C19.5 18.25 19.42 18.27 19.357 18.3C19.143 18.39 19 18.59 19 18.82V32.25C19 32.49 19.143 32.69 19.357 32.78C19.42 32.81 19.5 32.8199 19.571 32.8199C19.723 32.8199 19.866 32.76 19.973 32.66L22.759 29.87L24.464 33.91C24.589 34.19 24.92 34.33 25.214 34.21L26.795 33.54C27.08 33.41 27.223 33.08 27.098 32.79L25.304 28.54H28.714C28.946 28.54 29.152 28.4001 29.241 28.1801C29.33 27.9801 29.286 27.7299 29.116 27.5699Z" fill="white"/>
</svg>
