<svg width="50" height="51" viewBox="0 0 50 51" fill="none" xmlns="http://www.w3.org/2000/svg">
<path d="M31 0.969971H19C8.50659 0.969971 0 9.47656 0 19.97V31.97C0 42.4634 8.50659 50.97 19 50.97H31C41.4934 50.97 50 42.4634 50 31.97V19.97C50 9.47656 41.4934 0.969971 31 0.969971Z" fill="#4D8DFF"/>
<path d="M25.482 25.61L26.652 26.16L28.393 25.64V24.42C28.393 22.36 26.652 20.71 24.571 20.71C22.5 20.71 20.75 22.35 20.75 24.4V29.9301C20.75 30.4401 20.339 30.84 19.839 30.84C19.339 30.84 18.929 30.4401 18.929 29.9301V27.59H16C16 29.94 16 29.97 16 29.97C16 32.08 17.714 33.8 19.83 33.8C21.929 33.8 23.661 32.11 23.661 30.02V24.5601C23.661 24.0601 24.071 23.65 24.571 23.65C25.071 23.65 25.482 24.0601 25.482 24.5601V25.61ZM30.214 27.59V30.05C30.214 30.55 29.804 30.95 29.304 30.95C28.804 30.95 28.393 30.55 28.393 30.05V27.64L26.652 28.16L25.482 27.61V30C25.482 32.1 27.205 33.8 29.313 33.8C31.429 33.8 33.143 32.08 33.143 29.97C33.143 29.97 33.143 29.94 33.143 27.59H30.214Z" fill="white"/>
</svg>
