<svg width="50" height="51" viewBox="0 0 50 51" fill="none" xmlns="http://www.w3.org/2000/svg">
<path d="M31 0.969971H19C8.50659 0.969971 0 9.47656 0 19.97V31.97C0 42.4634 8.50659 50.97 19 50.97H31C41.4934 50.97 50 42.4634 50 31.97V19.97C50 9.47656 41.4934 0.969971 31 0.969971Z" fill="#740A76"/>
<path d="M25 34.11C25.143 34.11 25.286 34.06 25.393 33.95L30.955 28.59C31.036 28.51 33 26.7199 33 24.5699C33 21.9599 31.402 20.4 28.732 20.4C27.17 20.4 25.705 21.6299 25 22.3199C24.295 21.6299 22.83 20.4 21.268 20.4C18.598 20.4 17 21.9599 17 24.5699C17 26.7199 18.964 28.5099 19.036 28.5699L24.607 33.95C24.714 34.06 24.857 34.11 25 34.11Z" fill="white"/>
</svg>
